# 3ds Max Wavefront OBJ Exporter v0.97b - (c)2007 guruware
# File Created: 19.08.2018 11:46:41

mtllib repeat.mtl

#
# object Plane001
#

v  0.0000 0.0000 -400.0000
v  0.0000 0.0000 -0.0000
v  200.0000 0.0000 -400.0000
v  200.0000 0.0000 -0.0000
# 4 vertices

vn 0.0000 1.0000 -0.0000
# 1 vertex normals

vt 0.0000 8.0000 0.0000
vt 0.0000 0.0000 0.0000
vt 4.0000 8.0000 0.0000
vt 4.0000 0.0000 0.0000
# 4 texture coords

g Plane001
usemtl ground
f 1/1/1 2/2/1 3/3/1 
f 4/4/1 3/3/1 2/2/1 
# 2 faces

#
# object Plane002
#

v  200.0000 0.0000 -100.0000
v  200.0000 0.0000 -0.0000
v  300.0000 0.0000 -100.0000
v  300.0000 0.0000 -0.0000
# 4 vertices

vn 0.0000 1.0000 -0.0000
# 1 vertex normals

vt 0.0000 2.0000 0.0000
vt 0.0000 0.0000 0.0000
vt 2.0000 2.0000 0.0000
vt 2.0000 0.0000 0.0000
# 4 texture coords

g Plane002
usemtl ground
f 5/5/2 6/6/2 7/7/2 
f 8/8/2 7/7/2 6/6/2 
# 2 faces

#
# object Plane003
#

v  0.0000 200.0000 -0.0000
v  0.0000 0.0000 -0.0000
v  0.0000 200.0000 -400.0000
v  0.0000 0.0000 -400.0000
# 4 vertices

vn 1.0000 -0.0000 0.0000
# 1 vertex normals

vt 0.0000 1.0000 0.0000
vt 0.0000 0.0000 0.0000
vt 2.0000 1.0000 0.0000
vt 2.0000 0.0000 0.0000
# 4 texture coords

g Plane003
usemtl wall
f 9/9/3 10/10/3 11/11/3 
f 12/12/3 11/11/3 10/10/3 
# 2 faces

#
# object Plane004
#

v  0.0000 200.0000 -400.0000
v  0.0000 0.0000 -400.0000
v  200.0000 200.0000 -400.0000
v  200.0000 0.0000 -400.0000
# 4 vertices

vn 0.0000 -0.0000 1.0000
# 1 vertex normals

vt 0.0000 1.0000 0.0000
vt 0.0000 0.0000 0.0000
vt 1.0000 1.0000 0.0000
vt 1.0000 0.0000 0.0000
# 4 texture coords

g Plane004
usemtl wall
f 13/13/4 14/14/4 15/15/4 
f 16/16/4 15/15/4 14/14/4 
# 2 faces

