# 3ds Max Wavefront OBJ Exporter v0.97b - (c)2007 guruware
# File Created: 27.08.2018 11:02:47

mtllib several_materials.mtl

#
# object Plane001
#

v  0.0000 33.3333 -0.0000
v  0.0000 0.0000 -0.0000
v  66.6667 33.3333 -0.0000
v  66.6667 0.0000 -0.0000
v  133.3333 33.3333 -0.0000
v  133.3333 0.0000 -0.0000
v  200.0000 33.3333 -0.0000
v  200.0000 0.0000 -0.0000
v  0.0000 66.6667 0.0000
v  66.6667 66.6667 0.0000
v  133.3333 66.6667 0.0000
v  200.0000 66.6667 0.0000
v  0.0000 100.0000 0.0000
v  66.6667 100.0000 0.0000
v  133.3333 100.0000 0.0000
v  200.0000 100.0000 0.0000
# 16 vertices

vn 0.0000 -0.0000 1.0000
# 1 vertex normals

vt 0.0000 0.3333 0.0000
vt 0.0000 0.0000 0.0000
vt 2.0000 0.3333 0.0000
vt 2.0000 0.0000 0.0000
vt 4.0000 0.3333 0.0000
vt 4.0000 0.0000 0.0000
vt 6.0000 0.3333 0.0000
vt 6.0000 0.0000 0.0000
vt 0.0000 0.6667 0.0000
vt 2.0000 0.6667 0.0000
vt 0.0000 1.0000 0.0000
vt 1.0000 1.0000 0.0000
vt 1.0000 0.0000 0.0000
vt 4.0000 0.6667 0.0000
vt 6.0000 0.6667 0.0000
vt 2.0000 1.0000 0.0000
vt 4.0000 1.0000 0.0000
vt 6.0000 1.0000 0.0000
# 18 texture coords

g Plane001
usemtl wall
f 1/1/1 2/2/1 3/3/1 
f 4/4/1 3/3/1 2/2/1 
f 3/3/1 4/4/1 5/5/1 
f 6/6/1 5/5/1 4/4/1 
f 5/5/1 6/6/1 7/7/1 
f 8/8/1 7/7/1 6/6/1 
f 9/9/1 1/1/1 10/10/1 
f 3/3/1 10/10/1 1/1/1 
usemtl picture
f 10/11/1 3/2/1 11/12/1 
f 5/13/1 11/12/1 3/2/1 
usemtl wall
f 11/14/1 5/5/1 12/15/1 
f 7/7/1 12/15/1 5/5/1 
f 13/11/1 9/9/1 14/16/1 
f 10/10/1 14/16/1 9/9/1 
f 14/16/1 10/10/1 15/17/1 
f 11/14/1 15/17/1 10/10/1 
f 15/17/1 11/14/1 16/18/1 
f 12/15/1 16/18/1 11/14/1 
# 18 faces

#
# object Box001
#

v  -100.0000 0.0000 100.0000
v  -100.0000 0.0000 -0.0000
v  0.0000 0.0000 -0.0000
v  0.0000 0.0000 100.0000
v  -100.0000 100.0000 100.0000
v  0.0000 100.0000 100.0000
v  0.0000 100.0000 -0.0000
v  -100.0000 100.0000 -0.0000
# 8 vertices

vn 0.0000 -1.0000 -0.0000
vn 0.0000 1.0000 -0.0000
vn 0.0000 0.0000 1.0000
vn 1.0000 0.0000 -0.0000
vn 0.0000 0.0000 -1.0000
vn -1.0000 0.0000 -0.0000
# 6 vertex normals

vt 1.0000 0.0000 0.0000
vt 1.0000 1.0000 0.0000
vt 0.0000 1.0000 0.0000
vt 0.0000 0.0000 0.0000
# 4 texture coords

g Box001
usemtl Material__50
f 17/19/2 18/20/2 19/21/2 
f 19/21/2 20/22/2 17/19/2 
usemtl Material__49
f 21/22/3 22/19/3 23/20/3 
f 23/20/3 24/21/3 21/22/3 
usemtl picture
f 17/22/4 20/19/4 22/20/4 
f 22/20/4 21/21/4 17/22/4 
usemtl Material__52
f 20/22/5 19/19/5 23/20/5 
f 23/20/5 22/21/5 20/22/5 
usemtl Material__54
f 19/22/6 18/19/6 24/20/6 
f 24/20/6 23/21/6 19/22/6 
usemtl Material__51
f 18/22/7 17/19/7 21/20/7 
f 21/20/7 24/21/7 18/22/7 
# 12 faces

