# 3ds Max Wavefront OBJ Exporter v0.97b - (c)2007 guruware
# File Created: 17.08.2018 13:55:57

mtllib terrain.mtl

#
# object terrain
#

v  -92.2020 -17.8298 -71.7935
v  -134.5996 -27.7998 -51.7212
v  -50.1906 -32.2698 -61.6109
v  -120.4670 -34.6497 -31.6489
v  -205.2621 -22.4015 -21.6128
v  -191.1206 -31.3465 38.6040
v  148.0508 -33.4445 -41.6851
v  190.4484 -29.0953 28.5679
v  232.8459 -17.3510 -11.5767
v  100.3571 -28.6708 80.6830
v  107.7829 -23.5253 115.8684
v  162.1833 -32.5935 68.7124
v  -51.7639 5.7264 84.9281
v  -66.9010 -6.5231 60.2608
v  -100.8194 -9.2056 99.1383
v  63.2557 -34.8775 -71.7935
v  34.9907 -39.1870 -41.6851
v  49.1232 -39.0185 -11.5767
v  -53.7421 -23.9520 5.5541
v  -7.7537 -7.2462 52.3370
v  -219.3946 -19.4577 -81.8296
v  -162.8646 -20.5231 -91.8658
v  -176.8973 -31.4024 108.8461
v  -121.0821 -15.5957 62.5691
v  204.5809 -15.8731 108.8570
v  232.8459 -19.6887 38.6040
v  6.7256 -21.8013 -132.0103
v  -63.9370 -24.4685 -152.0826
v  -35.6719 -32.6496 -111.9380
v  49.1232 -32.5943 -111.9380
v  119.7858 -14.0468 -121.9742
v  176.3159 -11.1397 -111.9380
v  91.5207 -28.7041 -71.7935
v  148.0508 -30.4210 -61.7574
v  218.7134 -13.6739 -51.7212
v  190.4484 -18.5243 -81.8296
v  19.3006 -2.0827 93.3127
v  52.5672 -15.2839 151.3297
v  54.2828 -25.0877 62.5918
v  -92.2021 -34.0937 189.1463
v  77.3882 -32.0173 189.1461
v  -7.4664 -17.3248 159.2341
v  96.8472 -20.9916 159.3529
v  148.0508 -21.2357 118.8931
v  261.1110 -32.6677 108.8570
v  218.7134 -16.4876 108.8570
v  -219.3946 -28.5763 -121.9742
v  -134.5996 -27.4556 -152.0826
v  -106.3345 -18.3458 -142.0464
v  -106.3345 -12.1602 -91.8658
v  -175.9502 -22.0907 68.1668
v  -148.7238 -33.9454 18.5424
v  -125.5600 -24.0145 121.0014
v  -162.9503 -29.6374 149.1377
v  0.6135 -1.0669 124.2893
v  -247.6597 -24.4452 128.9293
v  -218.8549 -22.8377 108.8098
v  -247.6597 -32.3527 78.7486
v  -219.3946 -26.1938 159.0377
v  -204.4893 -21.6846 138.8975
v  91.5207 -35.8646 -1.5405
v  218.7134 -18.6107 -142.0464
v  162.1833 -11.1052 -121.9742
v  119.7858 -30.0478 -172.1548
v  77.3882 -28.1929 -152.0826
v  148.0508 -36.0753 58.6763
v  162.1833 -25.4856 169.0738
v  162.1833 -26.9443 138.9654
v  218.7134 -24.2683 128.9293
v  -93.4233 -8.7240 162.1026
v  -148.7564 -35.0423 169.0887
v  261.1109 -32.2504 -111.9380
v  232.8459 -14.9919 -51.7212
v  246.9784 -18.2844 -1.5405
v  261.1109 -30.9102 -71.7935
v  -275.9247 -38.1000 169.0738
v  -43.8021 11.4757 101.9886
v  -39.0489 4.3086 124.4604
v  -20.0180 6.9899 94.8957
v  -73.0626 1.8204 119.6760
v  119.7858 -29.4545 189.1461
v  261.1109 -31.7595 159.0377
v  218.7134 -23.1747 159.0377
v  -78.0695 -17.7092 -81.8296
v  261.1110 -35.3753 -172.1548
v  77.3882 -34.1442 -172.1548
v  -21.5394 -21.3179 -152.0826
v  -219.3946 -33.0250 -182.1910
v  -92.2020 -32.2380 -172.1548
v  -219.3717 -27.3234 58.6698
v  -109.7384 -13.7674 146.3360
v  -233.5271 -23.0117 -1.5405
v  6.7256 -34.2052 -172.1548
v  -247.6597 -30.9331 -91.8658
v  -233.5271 -24.3044 -31.6489
v  162.1833 -32.7478 -172.1548
v  -261.7922 -29.4892 8.4956
v  218.7134 -31.4523 -182.1910
# 98 vertices

vn 0.0926 0.9069 0.4110
vn 0.0509 0.9682 0.2450
vn 0.1343 0.9895 0.0537
vn 0.0298 0.9956 0.0884
vn 0.0832 0.9941 0.0703
vn 0.0657 0.9946 -0.0798
vn -0.1083 0.9887 0.1034
vn -0.1993 0.9799 -0.0126
vn -0.0831 0.9938 0.0737
vn 0.0813 0.9882 -0.1298
vn 0.0023 0.9772 -0.2122
vn -0.1498 0.9747 -0.1658
vn -0.1645 0.9473 -0.2750
vn -0.1575 0.9417 -0.2974
vn -0.3147 0.9490 -0.0177
vn -0.1604 0.9839 0.0792
vn 0.0130 0.9999 0.0067
vn 0.0245 0.9951 -0.0959
vn -0.0274 0.9727 -0.2302
vn 0.1333 0.9386 -0.3181
vn -0.1512 0.9855 -0.0765
vn -0.0588 0.9983 0.0031
vn 0.0390 0.9966 0.0724
vn -0.1793 0.9713 -0.1566
vn -0.0495 0.9934 0.1038
vn 0.0215 0.9995 0.0246
vn 0.0342 0.9820 0.1856
vn 0.0576 0.9974 -0.0444
vn 0.0823 0.9882 0.1289
vn -0.0526 0.9882 0.1436
vn -0.1239 0.9907 -0.0569
vn 0.0663 0.9934 0.0939
vn -0.1226 0.9809 0.1507
vn -0.0999 0.9615 0.2561
vn -0.0307 0.9994 0.0154
vn -0.0891 0.9909 0.1008
vn 0.3187 0.9418 -0.1073
vn 0.1072 0.9733 0.2028
vn 0.2246 0.9613 -0.1595
vn -0.0737 0.7494 0.6580
vn 0.0025 0.9285 0.3713
vn 0.0406 0.8852 0.4634
vn 0.0550 0.9743 0.2184
vn -0.0045 0.9997 -0.0253
vn 0.2802 0.9578 0.0640
vn 0.1858 0.9672 0.1735
vn -0.1189 0.9849 -0.1258
vn -0.0849 0.9704 -0.2259
vn -0.0211 0.9680 -0.2500
vn 0.0150 0.9984 0.0538
vn -0.0664 0.9965 -0.0510
vn -0.0436 0.9899 -0.1350
vn -0.3151 0.9456 0.0807
vn -0.0275 0.9923 0.1210
vn 0.1489 0.9547 0.2576
vn -0.1323 0.9895 0.0588
vn -0.0310 0.9969 -0.0721
vn -0.1501 0.9879 -0.0386
vn -0.0391 0.8916 0.4511
vn 0.0829 0.9938 0.0739
vn -0.0053 0.9999 -0.0147
vn 0.1509 0.9736 -0.1712
vn -0.0265 0.9911 -0.1307
vn -0.0599 0.9452 -0.3209
vn -0.0806 0.9793 -0.1855
vn -0.0443 0.9902 -0.1323
vn 0.0040 0.9964 0.0842
vn 0.0213 0.9932 0.1141
vn 0.1212 0.9810 0.1513
vn -0.1703 0.8872 0.4287
vn -0.1773 0.8938 0.4118
vn 0.3434 0.9381 -0.0464
vn 0.2028 0.9504 -0.2358
vn 0.1170 0.9923 0.0396
vn 0.3734 0.9248 -0.0735
vn -0.1331 0.9271 0.3503
vn -0.0396 0.9992 -0.0022
vn 0.0625 0.9422 0.3291
vn 0.1561 0.9843 -0.0822
vn -0.2523 0.9649 0.0733
vn 0.0042 0.9585 0.2850
vn 0.1977 0.9765 0.0853
vn 0.1092 0.9485 0.2973
vn 0.2546 0.9615 0.1034
vn 0.2561 0.9517 -0.1693
vn -0.0334 0.9569 -0.2886
vn -0.0419 0.9668 -0.2521
vn -0.0525 0.9942 -0.0941
vn -0.0130 0.9235 -0.3834
vn -0.0626 0.9975 0.0317
vn -0.3835 0.9219 0.0542
vn -0.1169 0.9926 0.0321
vn -0.0090 0.8357 -0.5492
vn -0.3060 0.9453 -0.1130
vn -0.4027 0.9146 -0.0359
vn 0.0275 0.8840 -0.4667
vn -0.2071 0.9772 0.0474
vn 0.0402 0.9517 -0.3044
# 98 vertex normals

vt 0.3423 0.7025 0.4216
vt 0.2634 0.6485 0.2250
vt 0.4204 0.6751 0.1369
vt 0.2897 0.5945 0.0900
vt 0.1319 0.5675 0.3315
vt 0.1583 0.4055 0.1551
vt 0.7892 0.6215 0.1137
vt 0.8681 0.4325 0.1995
vt 0.9469 0.5405 0.4311
vt 0.7005 0.2923 0.2079
vt 0.7143 0.1976 0.3093
vt 0.8155 0.3245 0.1305
vt 0.4175 0.2809 0.8861
vt 0.3893 0.3472 0.6446
vt 0.3262 0.2426 0.5917
vt 0.6314 0.7025 0.0855
vt 0.5789 0.6215 0.0005
vt 0.6052 0.5405 0.0038
vt 0.4138 0.4944 0.3009
vt 0.4994 0.3686 0.6303
vt 0.1057 0.7295 0.3895
vt 0.2108 0.7565 0.3685
vt 0.1847 0.2165 0.1540
vt 0.2885 0.3410 0.4657
vt 0.8943 0.2165 0.4602
vt 0.9469 0.4055 0.3850
vt 0.5263 0.8645 0.3433
vt 0.3948 0.9185 0.2907
vt 0.4474 0.8105 0.1294
vt 0.6052 0.8105 0.1305
vt 0.7366 0.8375 0.4962
vt 0.8418 0.8105 0.5536
vt 0.6840 0.7025 0.2072
vt 0.7892 0.6755 0.1734
vt 0.9206 0.6485 0.5036
vt 0.8681 0.7295 0.4079
vt 0.5497 0.2583 0.7321
vt 0.6116 0.1022 0.4718
vt 0.6148 0.3410 0.2785
vt 0.3423 0.0005 0.1009
vt 0.6577 0.0005 0.1419
vt 0.4999 0.0810 0.4316
vt 0.6939 0.0807 0.3593
vt 0.7892 0.1895 0.3545
vt 0.9995 0.2165 0.1291
vt 0.9206 0.2165 0.4481
vt 0.1057 0.8375 0.2097
vt 0.2634 0.9185 0.2318
vt 0.3160 0.8915 0.4115
vt 0.3160 0.7565 0.5334
vt 0.1865 0.3260 0.3376
vt 0.2371 0.4595 0.1039
vt 0.2802 0.1838 0.2997
vt 0.2107 0.1081 0.1888
vt 0.5149 0.1750 0.7522
vt 0.0531 0.1625 0.2912
vt 0.1067 0.2166 0.3229
vt 0.0531 0.2975 0.1353
vt 0.1057 0.0815 0.2567
vt 0.1334 0.1357 0.3456
vt 0.6840 0.5135 0.0660
vt 0.9206 0.8915 0.4062
vt 0.8155 0.8375 0.5542
vt 0.7366 0.9725 0.1807
vt 0.6577 0.9185 0.2173
vt 0.7892 0.3515 0.0619
vt 0.8155 0.0545 0.2707
vt 0.8155 0.1355 0.2419
vt 0.9206 0.1625 0.2947
vt 0.3400 0.0733 0.6012
vt 0.2371 0.0545 0.0822
vt 0.9995 0.8105 0.1373
vt 0.9469 0.6485 0.4776
vt 0.9732 0.5135 0.4127
vt 0.9995 0.7025 0.1637
vt 0.0005 0.0545 0.0219
vt 0.4323 0.2350 0.9995
vt 0.4411 0.1745 0.8582
vt 0.4765 0.2541 0.9110
vt 0.3779 0.1874 0.8091
vt 0.7366 0.0005 0.1924
vt 0.9995 0.0815 0.1470
vt 0.9206 0.0815 0.3162
vt 0.3686 0.7295 0.4240
vt 0.9995 0.9725 0.0757
vt 0.6577 0.9725 0.0999
vt 0.4737 0.9185 0.3529
vt 0.1057 0.9995 0.1220
vt 0.3423 0.9725 0.1375
vt 0.1057 0.3515 0.2344
vt 0.3096 0.1157 0.5017
vt 0.0794 0.5135 0.3195
vt 0.5263 0.9725 0.0987
vt 0.0531 0.7565 0.1633
vt 0.0794 0.5945 0.2940
vt 0.8155 0.9725 0.1275
vt 0.0268 0.4865 0.1917
vt 0.9206 0.9995 0.1530
# 98 texture coords

g terrain
usemtl terrain
f 1/1/1 2/2/2 3/3/3 
f 4/4/4 5/5/5 6/6/6 
f 7/7/7 8/8/8 9/9/9 
f 10/10/10 11/11/11 12/12/12 
f 13/13/13 14/14/14 15/15/15 
f 16/16/16 17/17/17 18/18/18 
f 19/19/19 18/18/18 17/17/17 
f 18/18/18 19/19/19 20/20/20 
f 21/21/21 2/2/2 22/22/22 
f 23/23/23 15/15/15 24/24/24 
f 8/8/8 25/25/25 26/26/26 
f 27/27/27 28/28/28 29/29/29 
f 30/30/30 16/16/16 31/31/31 
f 32/32/32 31/31/31 33/33/33 
f 34/34/34 35/35/35 36/36/36 
f 37/37/37 38/38/38 39/39/39 
f 40/40/40 41/41/41 42/42/42 
f 38/38/38 43/43/43 44/44/44 
f 45/45/45 26/26/26 46/46/46 
f 47/47/47 22/22/22 48/48/48 
f 29/29/29 49/49/49 50/50/50 
f 51/51/51 24/24/24 52/52/52 
f 53/53/53 23/23/23 54/54/54 
f 42/42/42 38/38/38 55/55/55 
f 20/20/20 14/14/14 13/13/13 
f 56/56/56 57/57/57 58/58/58 
f 59/59/59 54/54/54 60/60/60 
f 19/19/19 4/4/4 52/52/52 
f 3/3/3 4/4/4 19/19/19 
f 36/36/36 33/33/33 34/34/34 
f 7/7/7 33/33/33 61/61/61 
f 36/36/36 35/35/35 62/62/62 
f 63/63/63 62/62/62 64/64/64 
f 27/27/27 30/30/30 65/65/65 
f 22/22/22 47/47/47 21/21/21 
f 61/61/61 66/66/66 7/7/7 
f 66/66/66 61/61/61 10/10/10 
f 43/43/43 67/67/67 68/68/68 
f 44/44/44 25/25/25 12/12/12 
f 69/69/69 45/45/45 46/46/46 
f 10/10/10 39/39/39 38/38/38 
f 38/38/38 11/11/11 10/10/10 
f 49/49/49 48/48/48 22/22/22 
f 29/29/29 30/30/30 27/27/27 
f 17/17/17 3/3/3 19/19/19 
f 70/70/70 40/40/40 42/42/42 
f 71/71/71 40/40/40 70/70/70 
f 72/72/72 62/62/62 35/35/35 
f 2/2/2 21/21/21 5/5/5 
f 73/73/73 74/74/74 75/75/75 
f 7/7/7 9/9/9 35/35/35 
f 51/51/51 58/58/58 57/57/57 
f 24/24/24 51/51/51 23/23/23 
f 76/76/76 71/71/71 59/59/59 
f 77/77/77 78/78/78 79/79/79 
f 77/77/77 80/80/80 78/78/78 
f 65/65/65 63/63/63 64/64/64 
f 81/81/81 82/82/82 83/83/83 
f 69/69/69 83/83/83 45/45/45 
f 84/84/84 3/3/3 29/29/29 
f 3/3/3 17/17/17 29/29/29 
f 15/15/15 23/23/23 53/53/53 
f 15/15/15 80/80/80 13/13/13 
f 38/38/38 42/42/42 41/41/41 
f 43/43/43 38/38/38 41/41/41 
f 43/43/43 68/68/68 44/44/44 
f 25/25/25 44/44/44 68/68/68 
f 50/50/50 22/22/22 2/2/2 
f 50/50/50 49/49/49 22/22/22 
f 62/62/62 72/72/72 85/85/85 
f 39/39/39 20/20/20 37/37/37 
f 79/79/79 78/78/78 55/55/55 
f 86/86/86 87/87/87 27/27/27 
f 27/27/27 87/87/87 28/28/28 
f 30/30/30 31/31/31 65/65/65 
f 63/63/63 65/65/65 31/31/31 
f 20/20/20 39/39/39 18/18/18 
f 39/39/39 10/10/10 61/61/61 
f 33/33/33 36/36/36 32/32/32 
f 62/62/62 32/32/32 36/36/36 
f 82/82/82 45/45/45 83/83/83 
f 57/57/57 23/23/23 51/51/51 
f 54/54/54 23/23/23 60/60/60 
f 48/48/48 88/88/88 47/47/47 
f 76/76/76 59/59/59 56/56/56 
f 60/60/60 56/56/56 59/59/59 
f 28/28/28 89/89/89 49/49/49 
f 49/49/49 29/29/29 28/28/28 
f 90/90/90 51/51/51 6/6/6 
f 6/6/6 5/5/5 90/90/90 
f 14/14/14 20/20/20 19/19/19 
f 52/52/52 24/24/24 19/19/19 
f 9/9/9 74/74/74 73/73/73 
f 74/74/74 26/26/26 45/45/45 
f 2/2/2 1/1/1 50/50/50 
f 50/50/50 84/84/84 29/29/29 
f 70/70/70 91/91/91 71/71/71 
f 80/80/80 15/15/15 91/91/91 
f 66/66/66 8/8/8 7/7/7 
f 25/25/25 8/8/8 12/12/12 
f 16/16/16 30/30/30 17/17/17 
f 30/30/30 29/29/29 17/17/17 
f 92/92/92 90/90/90 5/5/5 
f 5/5/5 21/21/21 92/92/92 
f 91/91/91 54/54/54 71/71/71 
f 59/59/59 71/71/71 54/54/54 
f 79/79/79 13/13/13 77/77/77 
f 80/80/80 77/77/77 13/13/13 
f 70/70/70 42/42/42 78/78/78 
f 55/55/55 78/78/78 42/42/42 
f 87/87/87 86/86/86 93/93/93 
f 93/93/93 28/28/28 87/87/87 
f 21/21/21 94/94/94 95/95/95 
f 95/95/95 92/92/92 21/21/21 
f 37/37/37 79/79/79 55/55/55 
f 38/38/38 37/37/37 55/55/55 
f 69/69/69 68/68/68 67/67/67 
f 68/68/68 69/69/69 25/25/25 
f 33/33/33 7/7/7 34/34/34 
f 35/35/35 34/34/34 7/7/7 
f 21/21/21 47/47/47 94/94/94 
f 94/94/94 47/47/47 88/88/88 
f 4/4/4 3/3/3 2/2/2 
f 5/5/5 4/4/4 2/2/2 
f 25/25/25 46/46/46 26/26/26 
f 46/46/46 25/25/25 69/69/69 
f 89/89/89 88/88/88 48/48/48 
f 89/89/89 48/48/48 49/49/49 
f 73/73/73 35/35/35 9/9/9 
f 75/75/75 35/35/35 73/73/73 
f 74/74/74 9/9/9 26/26/26 
f 8/8/8 26/26/26 9/9/9 
f 96/96/96 64/64/64 62/62/62 
f 66/66/66 12/12/12 8/8/8 
f 10/10/10 12/12/12 66/66/66 
f 43/43/43 41/41/41 81/81/81 
f 43/43/43 81/81/81 67/67/67 
f 57/57/57 60/60/60 23/23/23 
f 56/56/56 60/60/60 57/57/57 
f 35/35/35 75/75/75 72/72/72 
f 11/11/11 44/44/44 12/12/12 
f 38/38/38 44/44/44 11/11/11 
f 92/92/92 97/97/97 58/58/58 
f 97/97/97 92/92/92 95/95/95 
f 16/16/16 33/33/33 31/31/31 
f 33/33/33 16/16/16 18/18/18 
f 64/64/64 86/86/86 65/65/65 
f 27/27/27 65/65/65 86/86/86 
f 14/14/14 24/24/24 15/15/15 
f 24/24/24 14/14/14 19/19/19 
f 85/85/85 98/98/98 62/62/62 
f 98/98/98 96/96/96 62/62/62 
f 78/78/78 80/80/80 70/70/70 
f 91/91/91 70/70/70 80/80/80 
f 90/90/90 92/92/92 58/58/58 
f 51/51/51 90/90/90 58/58/58 
f 79/79/79 37/37/37 20/20/20 
f 79/79/79 20/20/20 13/13/13 
f 62/62/62 63/63/63 32/32/32 
f 31/31/31 32/32/32 63/63/63 
f 50/50/50 1/1/1 84/84/84 
f 3/3/3 84/84/84 1/1/1 
f 4/4/4 6/6/6 52/52/52 
f 52/52/52 6/6/6 51/51/51 
f 18/18/18 61/61/61 33/33/33 
f 61/61/61 18/18/18 39/39/39 
f 15/15/15 53/53/53 91/91/91 
f 91/91/91 53/53/53 54/54/54 
f 67/67/67 83/83/83 69/69/69 
f 81/81/81 83/83/83 67/67/67 
# 170 faces

#
# object Pyramid001
#

v  27.5150 26.2468 -8.1557
v  18.6654 9.9636 -0.0141
v  36.3645 9.9636 -0.0141
v  36.3645 9.9636 -16.2973
v  18.6654 9.9636 -16.2973
v  27.5150 9.9636 -8.1557
# 6 vertices

vn 0.0000 1.0000 -0.0000
vn -0.6699 -0.3416 0.6592
vn 0.6699 -0.3416 0.6592
vn 0.6699 -0.3416 -0.6592
vn -0.6699 -0.3416 -0.6592
vn 0.0000 -1.0000 -0.0000
# 6 vertex normals

vt 0.5000 1.0000 0.0000
vt 0.0000 0.0000 0.0000
vt 1.0000 0.0000 0.0000
vt -0.0435 0.0000 0.0000
vt 0.9565 0.0000 0.0000
vt 0.0000 1.0000 0.0000
vt 0.5000 0.5000 0.0000
vt 1.0000 1.0000 0.0000
# 8 texture coords

g Pyramid001
usemtl wire_108008136
f 99/99/99 100/100/100 101/101/101 
f 99/99/99 101/102/101 102/103/102 
f 99/99/99 102/100/102 103/101/103 
f 99/99/99 103/102/103 100/103/100 
f 100/104/100 104/105/104 101/106/101 
f 101/106/101 104/105/104 102/101/102 
f 102/101/102 104/105/104 103/100/103 
f 103/100/103 104/105/104 100/104/100 
# 8 faces

#
# object Box001
#

v  115.9528 21.3595 0.3409
v  115.9528 -2.9024 0.3409
v  85.4297 -2.9024 0.3409
v  85.4297 21.3595 0.3409
v  115.9528 21.3595 42.5509
v  85.4297 21.3595 42.5509
v  85.4297 -2.9024 42.5509
v  115.9528 -2.9024 42.5509
v  115.9528 -4.4018 40.2294
v  85.4297 -4.4018 40.2294
v  85.4297 -4.4018 2.6624
v  115.9528 -4.4018 2.6624
v  117.8391 21.3595 40.2294
v  117.8391 -2.9024 40.2294
v  117.8391 -2.9024 2.6624
v  117.8391 21.3595 2.6624
v  85.4297 22.8589 40.2294
v  115.9528 22.8589 40.2294
v  115.9528 22.8589 2.6624
v  85.4297 22.8589 2.6624
v  83.5434 -2.9024 40.2294
v  83.5434 21.3595 40.2294
v  83.5434 21.3595 2.6624
v  83.5434 -2.9024 2.6624
# 24 vertices

vn 0.3701 0.4189 -0.8292
vn 0.3701 -0.4189 -0.8292
vn -0.3701 -0.4189 -0.8292
vn -0.3701 0.4189 -0.8292
vn 0.3701 0.4189 0.8292
vn -0.3701 0.4189 0.8292
vn -0.3701 -0.4189 0.8292
vn 0.3701 -0.4189 0.8292
vn 0.3054 -0.9164 0.2588
vn -0.3054 -0.9164 0.2588
vn -0.3054 -0.9164 -0.2588
vn 0.3054 -0.9164 -0.2588
vn 0.8712 0.3936 0.2935
vn 0.8712 -0.3936 0.2935
vn 0.8712 -0.3936 -0.2935
vn 0.8712 0.3936 -0.2935
vn -0.3054 0.9164 0.2588
vn 0.3054 0.9164 0.2588
vn 0.3054 0.9164 -0.2588
vn -0.3054 0.9164 -0.2588
vn -0.8712 -0.3936 0.2935
vn -0.8712 0.3936 0.2935
vn -0.8712 0.3936 -0.2935
vn -0.8712 -0.3936 -0.2935
# 24 vertex normals

vt 0.0550 0.9450 0.0000
vt 0.0550 0.0550 0.0000
vt 0.9450 0.0550 0.0000
vt 0.9450 0.9450 0.0000
vt 0.9450 -0.0550 0.0000
vt 0.0550 -0.0550 0.0000
vt -0.0550 0.0550 0.0000
vt -0.0550 0.9450 0.0000
vt 1.0550 0.0550 0.0000
vt 1.0550 0.9450 0.0000
vt 0.9450 1.0550 0.0000
vt 0.0550 1.0550 0.0000
# 12 texture coords

g Box001
usemtl wire_135006006
f 105/107/105 106/108/106 107/109/107 
f 107/109/107 108/110/108 105/107/105 
f 109/110/109 110/107/110 111/108/111 
f 111/108/111 112/109/112 109/110/109 
f 113/110/113 114/107/114 115/108/115 
f 115/108/115 116/109/116 113/110/113 
f 117/110/117 118/107/118 119/108/119 
f 119/108/119 120/109/120 117/110/117 
f 121/110/121 122/107/122 123/108/123 
f 123/108/123 124/109/124 121/110/121 
f 125/110/125 126/107/126 127/108/127 
f 127/108/127 128/109/128 125/110/125 
f 115/111/115 107/109/107 106/108/106 
f 106/108/106 116/112/116 115/111/115 
f 128/113/128 115/108/115 114/107/114 
f 114/107/114 125/114/125 128/113/128 
f 107/109/107 128/115/128 127/116/127 
f 127/116/127 108/110/108 107/109/107 
f 115/111/115 128/115/128 107/109/107 
f 119/113/119 106/108/106 105/107/105 
f 105/107/105 120/114/120 119/113/119 
f 116/109/116 119/115/119 118/116/118 
f 118/116/118 113/110/113 116/109/116 
f 106/108/106 119/113/119 116/112/116 
f 124/109/124 127/115/127 126/116/126 
f 126/116/126 121/110/121 124/109/124 
f 108/110/108 124/117/124 123/118/123 
f 123/118/123 105/107/105 108/110/108 
f 127/116/127 124/117/124 108/110/108 
f 120/109/120 123/115/123 122/116/122 
f 122/116/122 117/110/117 120/109/120 
f 105/107/105 123/118/123 120/114/120 
f 111/108/111 114/112/114 113/111/113 
f 113/111/113 112/109/112 111/108/111 
f 125/113/125 111/108/111 110/107/110 
f 110/107/110 126/114/126 125/113/125 
f 114/112/114 111/108/111 125/113/125 
f 112/109/112 118/115/118 117/116/117 
f 117/116/117 109/110/109 112/109/112 
f 118/115/118 112/109/112 113/111/113 
f 121/118/121 110/107/110 109/110/109 
f 109/110/109 122/117/122 121/118/121 
f 126/114/126 110/107/110 121/118/121 
f 122/117/122 109/110/109 117/116/117 
# 44 faces

